<?xml version="1.0" encoding="utf-8" standalone="no"?>
<!DOCTYPE svg PUBLIC "-//W3C//DTD SVG 1.1//EN"
  "http://www.w3.org/Graphics/SVG/1.1/DTD/svg11.dtd">
<svg xmlns:xlink="http://www.w3.org/1999/xlink" width="460.8pt" height="345.6pt" viewBox="0 0 460.8 345.6" xmlns="http://www.w3.org/2000/svg" version="1.1">
 <metadata>
  <rdf:RDF xmlns:dc="http://purl.org/dc/elements/1.1/" xmlns:cc="http://creativecommons.org/ns#" xmlns:rdf="http://www.w3.org/1999/02/22-rdf-syntax-ns#">
   <cc:Work>
    <dc:type rdf:resource="http://purl.org/dc/dcmitype/StillImage"/>
    <dc:date>2026-02-08T05:10:27.491552</dc:date>
    <dc:format>image/svg+xml</dc:format>
    <dc:creator>
     <cc:Agent>
      <dc:title>Matplotlib v3.9.1, https://matplotlib.org/</dc:title>
     </cc:Agent>
    </dc:creator>
   </cc:Work>
  </rdf:RDF>
 </metadata>
 <defs>
  <style type="text/css">*{stroke-linejoin: round; stroke-linecap: butt}</style>
 </defs>
 <g id="figure_1">
  <g id="patch_1">
   <path d="M 0 345.6 
L 460.8 345.6 
L 460.8 0 
L 0 0 
z
" style="fill: #ffffff"/>
  </g>
  <g id="axes_1">
   <g id="patch_2">
    <path d="M 57.6 307.584 
L 414.72 307.584 
L 414.72 41.472 
L 57.6 41.472 
z
" style="fill: #ffffff"/>
   </g>
   <g id="patch_3">
    <path d="M 73.832727 84819.909817 
L 74.921238 84819.909817 
L 74.921238 83.85654 
L 73.832727 83.85654 
z
" clip-path="url(#p71d66383e7)" style="fill: #ff0000; opacity: 0.5"/>
   </g>
   <g id="patch_4">
    <path d="M 74.921238 84819.909817 
L 76.009749 84819.909817 
L 76.009749 53.568 
L 74.921238 53.568 
z
" clip-path="url(#p71d66383e7)" style="fill: #ff0000; opacity: 0.5"/>
   </g>
   <g id="patch_5">
    <path d="M 76.009749 84819.909817 
L 77.09826 84819.909817 
L 77.09826 68.781238 
L 76.009749 68.781238 
z
" clip-path="url(#p71d66383e7)" style="fill: #ff0000; opacity: 0.5"/>
   </g>
   <g id="patch_6">
    <path d="M 77.09826 84819.909817 
L 78.18677 84819.909817 
L 78.18677 104.055583 
L 77.09826 104.055583 
z
" clip-path="url(#p71d66383e7)" style="fill: #ff0000; opacity: 0.5"/>
   </g>
   <g id="patch_7">
    <path d="M 78.18677 84819.909817 
L 79.275281 84819.909817 
L 79.275281 131.975637 
L 78.18677 131.975637 
z
" clip-path="url(#p71d66383e7)" style="fill: #ff0000; opacity: 0.5"/>
   </g>
   <g id="patch_8">
    <path d="M 79.275281 84819.909817 
L 80.363792 84819.909817 
L 80.363792 154.154895 
L 79.275281 154.154895 
z
" clip-path="url(#p71d66383e7)" style="fill: #ff0000; opacity: 0.5"/>
   </g>
   <g id="patch_9">
    <path d="M 80.363792 84819.909817 
L 81.452303 84819.909817 
L 81.452303 166.04063 
L 80.363792 166.04063 
z
" clip-path="url(#p71d66383e7)" style="fill: #ff0000; opacity: 0.5"/>
   </g>
   <g id="patch_10">
    <path d="M 81.452303 84819.909817 
L 82.540813 84819.909817 
L 82.540813 193.710455 
L 81.452303 193.710455 
z
" clip-path="url(#p71d66383e7)" style="fill: #ff0000; opacity: 0.5"/>
   </g>
   <g id="patch_11">
    <path d="M 82.540813 84819.909817 
L 83.629324 84819.909817 
L 83.629324 183.728179 
L 82.540813 183.728179 
z
" clip-path="url(#p71d66383e7)" style="fill: #ff0000; opacity: 0.5"/>
   </g>
   <g id="patch_12">
    <path d="M 83.629324 84819.909817 
L 84.717835 84819.909817 
L 84.717835 196.079566 
L 83.629324 196.079566 
z
" clip-path="url(#p71d66383e7)" style="fill: #ff0000; opacity: 0.5"/>
   </g>
   <g id="patch_13">
    <path d="M 84.717835 84819.909817 
L 85.806346 84819.909817 
L 85.806346 182.020499 
L 84.717835 182.020499 
z
" clip-path="url(#p71d66383e7)" style="fill: #ff0000; opacity: 0.5"/>
   </g>
   <g id="patch_14">
    <path d="M 85.806346 84819.909817 
L 86.894856 84819.909817 
L 86.894856 210.963578 
L 85.806346 210.963578 
z
" clip-path="url(#p71d66383e7)" style="fill: #ff0000; opacity: 0.5"/>
   </g>
   <g id="patch_15">
    <path d="M 86.894856 84819.909817 
L 87.983367 84819.909817 
L 87.983367 207.464885 
L 86.894856 207.464885 
z
" clip-path="url(#p71d66383e7)" style="fill: #ff0000; opacity: 0.5"/>
   </g>
   <g id="patch_16">
    <path d="M 87.983367 84819.909817 
L 89.071878 84819.909817 
L 89.071878 189.386817 
L 87.983367 189.386817 
z
" clip-path="url(#p71d66383e7)" style="fill: #ff0000; opacity: 0.5"/>
   </g>
   <g id="patch_17">
    <path d="M 89.071878 84819.909817 
L 90.160389 84819.909817 
L 90.160389 229.715215 
L 89.071878 229.715215 
z
" clip-path="url(#p71d66383e7)" style="fill: #ff0000; opacity: 0.5"/>
   </g>
   <g id="patch_18">
    <path d="M 90.160389 84819.909817 
L 91.248899 84819.909817 
L 91.248899 219.154841 
L 90.160389 219.154841 
z
" clip-path="url(#p71d66383e7)" style="fill: #ff0000; opacity: 0.5"/>
   </g>
   <g id="patch_19">
    <path d="M 91.248899 84819.909817 
L 92.33741 84819.909817 
L 92.33741 201.332582 
L 91.248899 201.332582 
z
" clip-path="url(#p71d66383e7)" style="fill: #ff0000; opacity: 0.5"/>
   </g>
   <g id="patch_20">
    <path d="M 92.33741 84819.909817 
L 93.425921 84819.909817 
L 93.425921 219.154841 
L 92.33741 219.154841 
z
" clip-path="url(#p71d66383e7)" style="fill: #ff0000; opacity: 0.5"/>
   </g>
   <g id="patch_21">
    <path d="M 93.425921 84819.909817 
L 94.514432 84819.909817 
L 94.514432 236.407965 
L 93.425921 236.407965 
z
" clip-path="url(#p71d66383e7)" style="fill: #ff0000; opacity: 0.5"/>
   </g>
   <g id="patch_22">
    <path d="M 94.514432 84819.909817 
L 95.602943 84819.909817 
L 95.602943 229.715215 
L 94.514432 229.715215 
z
" clip-path="url(#p71d66383e7)" style="fill: #ff0000; opacity: 0.5"/>
   </g>
   <g id="patch_23">
    <path d="M 95.602943 84819.909817 
L 98.930141 84819.909817 
L 98.930141 229.715215 
L 95.602943 229.715215 
z
" clip-path="url(#p71d66383e7)" style="fill: #ff0000; opacity: 0.5"/>
   </g>
   <g id="patch_24">
    <path d="M 98.930141 84819.909817 
L 102.765844 84819.909817 
L 102.765844 229.715215 
L 98.930141 229.715215 
z
" clip-path="url(#p71d66383e7)" style="fill: #ff0000; opacity: 0.5"/>
   </g>
   <g id="patch_25">
    <path d="M 102.765844 84819.909817 
L 107.187768 84819.909817 
L 107.187768 224.056577 
L 102.765844 224.056577 
z
" clip-path="url(#p71d66383e7)" style="fill: #ff0000; opacity: 0.5"/>
   </g>
   <g id="patch_26">
    <path d="M 107.187768 84819.909817 
L 112.285506 84819.909817 
L 112.285506 244.599227 
L 107.187768 244.599227 
z
" clip-path="url(#p71d66383e7)" style="fill: #ff0000; opacity: 0.5"/>
   </g>
   <g id="patch_27">
    <path d="M 112.285506 84819.909817 
L 118.162344 84819.909817 
L 118.162344 229.715215 
L 112.285506 229.715215 
z
" clip-path="url(#p71d66383e7)" style="fill: #ff0000; opacity: 0.5"/>
   </g>
   <g id="patch_28">
    <path d="M 118.162344 84819.909817 
L 124.937355 84819.909817 
L 124.937355 270.043614 
L 118.162344 270.043614 
z
" clip-path="url(#p71d66383e7)" style="fill: #ff0000; opacity: 0.5"/>
   </g>
   <g id="patch_29">
    <path d="M 124.937355 84819.909817 
L 132.747808 84819.909817 
L 132.747808 295.488 
L 124.937355 295.488 
z
" clip-path="url(#p71d66383e7)" style="fill: #ff0000; opacity: 0.5"/>
   </g>
   <g id="patch_30">
    <path d="M 132.747808 84819.909817 
L 141.751954 84819.909817 
L 141.751954 255.159602 
L 132.747808 255.159602 
z
" clip-path="url(#p71d66383e7)" style="fill: #ff0000; opacity: 0.5"/>
   </g>
   <g id="patch_31">
    <path d="M 141.751954 84819.909817 
L 152.132226 84819.909817 
L 152.132226 295.488 
L 141.751954 295.488 
z
" clip-path="url(#p71d66383e7)" style="fill: #ff0000; opacity: 0.5"/>
   </g>
   <g id="patch_32">
    <path d="M 152.132226 84819.909817 
L 164.098942 84819.909817 
L 164.098942 270.043614 
L 152.132226 270.043614 
z
" clip-path="url(#p71d66383e7)" style="fill: #ff0000; opacity: 0.5"/>
   </g>
   <g id="patch_33">
    <path d="M 164.098942 84819.909817 
L 177.894563 84819.909817 
L 177.894563 84819.909817 
L 164.098942 84819.909817 
z
" clip-path="url(#p71d66383e7)" style="fill: #ff0000; opacity: 0.5"/>
   </g>
   <g id="patch_34">
    <path d="M 177.894563 84819.909817 
L 193.798604 84819.909817 
L 193.798604 84819.909817 
L 177.894563 84819.909817 
z
" clip-path="url(#p71d66383e7)" style="fill: #ff0000; opacity: 0.5"/>
   </g>
   <g id="patch_35">
    <path d="M 193.798604 84819.909817 
L 212.133301 84819.909817 
L 212.133301 295.488 
L 193.798604 295.488 
z
" clip-path="url(#p71d66383e7)" style="fill: #ff0000; opacity: 0.5"/>
   </g>
   <g id="patch_36">
    <path d="M 212.133301 84819.909817 
L 233.270138 84819.909817 
L 233.270138 84819.909817 
L 212.133301 84819.909817 
z
" clip-path="url(#p71d66383e7)" style="fill: #ff0000; opacity: 0.5"/>
   </g>
   <g id="patch_37">
    <path d="M 233.270138 84819.909817 
L 257.637373 84819.909817 
L 257.637373 84819.909817 
L 233.270138 84819.909817 
z
" clip-path="url(#p71d66383e7)" style="fill: #ff0000; opacity: 0.5"/>
   </g>
   <g id="patch_38">
    <path d="M 257.637373 84819.909817 
L 285.728716 84819.909817 
L 285.728716 295.488 
L 257.637373 295.488 
z
" clip-path="url(#p71d66383e7)" style="fill: #ff0000; opacity: 0.5"/>
   </g>
   <g id="patch_39">
    <path d="M 285.728716 84819.909817 
L 318.113332 84819.909817 
L 318.113332 84819.909817 
L 285.728716 84819.909817 
z
" clip-path="url(#p71d66383e7)" style="fill: #ff0000; opacity: 0.5"/>
   </g>
   <g id="patch_40">
    <path d="M 318.113332 84819.909817 
L 355.447373 84819.909817 
L 355.447373 84819.909817 
L 318.113332 84819.909817 
z
" clip-path="url(#p71d66383e7)" style="fill: #ff0000; opacity: 0.5"/>
   </g>
   <g id="patch_41">
    <path d="M 355.447373 84819.909817 
L 398.487273 84819.909817 
L 398.487273 295.488 
L 355.447373 295.488 
z
" clip-path="url(#p71d66383e7)" style="fill: #ff0000; opacity: 0.5"/>
   </g>
   <g id="patch_42">
    <path d="M 73.832727 84819.909817 
L 74.921238 84819.909817 
L 74.921238 132.839406 
L 73.832727 132.839406 
z
" clip-path="url(#p71d66383e7)" style="fill: #ffa500; opacity: 0.5"/>
   </g>
   <g id="patch_43">
    <path d="M 74.921238 84819.909817 
L 76.009749 84819.909817 
L 76.009749 97.496077 
L 74.921238 97.496077 
z
" clip-path="url(#p71d66383e7)" style="fill: #ffa500; opacity: 0.5"/>
   </g>
   <g id="patch_44">
    <path d="M 76.009749 84819.909817 
L 77.09826 84819.909817 
L 77.09826 127.180767 
L 76.009749 127.180767 
z
" clip-path="url(#p71d66383e7)" style="fill: #ffa500; opacity: 0.5"/>
   </g>
   <g id="patch_45">
    <path d="M 77.09826 84819.909817 
L 78.18677 84819.909817 
L 78.18677 210.963578 
L 77.09826 210.963578 
z
" clip-path="url(#p71d66383e7)" style="fill: #ffa500; opacity: 0.5"/>
   </g>
   <g id="patch_46">
    <path d="M 78.18677 84819.909817 
L 79.275281 84819.909817 
L 79.275281 84819.909817 
L 78.18677 84819.909817 
z
" clip-path="url(#p71d66383e7)" style="fill: #ffa500; opacity: 0.5"/>
   </g>
   <g id="patch_47">
    <path d="M 79.275281 84819.909817 
L 80.363792 84819.909817 
L 80.363792 84819.909817 
L 79.275281 84819.909817 
z
" clip-path="url(#p71d66383e7)" style="fill: #ffa500; opacity: 0.5"/>
   </g>
   <g id="patch_48">
    <path d="M 80.363792 84819.909817 
L 81.452303 84819.909817 
L 81.452303 84819.909817 
L 80.363792 84819.909817 
z
" clip-path="url(#p71d66383e7)" style="fill: #ffa500; opacity: 0.5"/>
   </g>
   <g id="patch_49">
    <path d="M 81.452303 84819.909817 
L 82.540813 84819.909817 
L 82.540813 84819.909817 
L 81.452303 84819.909817 
z
" clip-path="url(#p71d66383e7)" style="fill: #ffa500; opacity: 0.5"/>
   </g>
   <g id="patch_50">
    <path d="M 82.540813 84819.909817 
L 83.629324 84819.909817 
L 83.629324 84819.909817 
L 82.540813 84819.909817 
z
" clip-path="url(#p71d66383e7)" style="fill: #ffa500; opacity: 0.5"/>
   </g>
   <g id="patch_51">
    <path d="M 83.629324 84819.909817 
L 84.717835 84819.909817 
L 84.717835 84819.909817 
L 83.629324 84819.909817 
z
" clip-path="url(#p71d66383e7)" style="fill: #ffa500; opacity: 0.5"/>
   </g>
   <g id="patch_52">
    <path d="M 84.717835 84819.909817 
L 85.806346 84819.909817 
L 85.806346 84819.909817 
L 84.717835 84819.909817 
z
" clip-path="url(#p71d66383e7)" style="fill: #ffa500; opacity: 0.5"/>
   </g>
   <g id="patch_53">
    <path d="M 85.806346 84819.909817 
L 86.894856 84819.909817 
L 86.894856 84819.909817 
L 85.806346 84819.909817 
z
" clip-path="url(#p71d66383e7)" style="fill: #ffa500; opacity: 0.5"/>
   </g>
   <g id="patch_54">
    <path d="M 86.894856 84819.909817 
L 87.983367 84819.909817 
L 87.983367 84819.909817 
L 86.894856 84819.909817 
z
" clip-path="url(#p71d66383e7)" style="fill: #ffa500; opacity: 0.5"/>
   </g>
   <g id="patch_55">
    <path d="M 87.983367 84819.909817 
L 89.071878 84819.909817 
L 89.071878 84819.909817 
L 87.983367 84819.909817 
z
" clip-path="url(#p71d66383e7)" style="fill: #ffa500; opacity: 0.5"/>
   </g>
   <g id="patch_56">
    <path d="M 89.071878 84819.909817 
L 90.160389 84819.909817 
L 90.160389 84819.909817 
L 89.071878 84819.909817 
z
" clip-path="url(#p71d66383e7)" style="fill: #ffa500; opacity: 0.5"/>
   </g>
   <g id="patch_57">
    <path d="M 90.160389 84819.909817 
L 91.248899 84819.909817 
L 91.248899 84819.909817 
L 90.160389 84819.909817 
z
" clip-path="url(#p71d66383e7)" style="fill: #ffa500; opacity: 0.5"/>
   </g>
   <g id="patch_58">
    <path d="M 91.248899 84819.909817 
L 92.33741 84819.909817 
L 92.33741 84819.909817 
L 91.248899 84819.909817 
z
" clip-path="url(#p71d66383e7)" style="fill: #ffa500; opacity: 0.5"/>
   </g>
   <g id="patch_59">
    <path d="M 92.33741 84819.909817 
L 93.425921 84819.909817 
L 93.425921 84819.909817 
L 92.33741 84819.909817 
z
" clip-path="url(#p71d66383e7)" style="fill: #ffa500; opacity: 0.5"/>
   </g>
   <g id="patch_60">
    <path d="M 93.425921 84819.909817 
L 94.514432 84819.909817 
L 94.514432 84819.909817 
L 93.425921 84819.909817 
z
" clip-path="url(#p71d66383e7)" style="fill: #ffa500; opacity: 0.5"/>
   </g>
   <g id="patch_61">
    <path d="M 94.514432 84819.909817 
L 95.602943 84819.909817 
L 95.602943 84819.909817 
L 94.514432 84819.909817 
z
" clip-path="url(#p71d66383e7)" style="fill: #ffa500; opacity: 0.5"/>
   </g>
   <g id="patch_62">
    <path d="M 95.602943 84819.909817 
L 98.930141 84819.909817 
L 98.930141 84819.909817 
L 95.602943 84819.909817 
z
" clip-path="url(#p71d66383e7)" style="fill: #ffa500; opacity: 0.5"/>
   </g>
   <g id="patch_63">
    <path d="M 98.930141 84819.909817 
L 102.765844 84819.909817 
L 102.765844 84819.909817 
L 98.930141 84819.909817 
z
" clip-path="url(#p71d66383e7)" style="fill: #ffa500; opacity: 0.5"/>
   </g>
   <g id="patch_64">
    <path d="M 102.765844 84819.909817 
L 107.187768 84819.909817 
L 107.187768 84819.909817 
L 102.765844 84819.909817 
z
" clip-path="url(#p71d66383e7)" style="fill: #ffa500; opacity: 0.5"/>
   </g>
   <g id="patch_65">
    <path d="M 107.187768 84819.909817 
L 112.285506 84819.909817 
L 112.285506 84819.909817 
L 107.187768 84819.909817 
z
" clip-path="url(#p71d66383e7)" style="fill: #ffa500; opacity: 0.5"/>
   </g>
   <g id="patch_66">
    <path d="M 112.285506 84819.909817 
L 118.162344 84819.909817 
L 118.162344 84819.909817 
L 112.285506 84819.909817 
z
" clip-path="url(#p71d66383e7)" style="fill: #ffa500; opacity: 0.5"/>
   </g>
   <g id="patch_67">
    <path d="M 118.162344 84819.909817 
L 124.937355 84819.909817 
L 124.937355 84819.909817 
L 118.162344 84819.909817 
z
" clip-path="url(#p71d66383e7)" style="fill: #ffa500; opacity: 0.5"/>
   </g>
   <g id="patch_68">
    <path d="M 124.937355 84819.909817 
L 132.747808 84819.909817 
L 132.747808 84819.909817 
L 124.937355 84819.909817 
z
" clip-path="url(#p71d66383e7)" style="fill: #ffa500; opacity: 0.5"/>
   </g>
   <g id="patch_69">
    <path d="M 132.747808 84819.909817 
L 141.751954 84819.909817 
L 141.751954 84819.909817 
L 132.747808 84819.909817 
z
" clip-path="url(#p71d66383e7)" style="fill: #ffa500; opacity: 0.5"/>
   </g>
   <g id="patch_70">
    <path d="M 141.751954 84819.909817 
L 152.132226 84819.909817 
L 152.132226 84819.909817 
L 141.751954 84819.909817 
z
" clip-path="url(#p71d66383e7)" style="fill: #ffa500; opacity: 0.5"/>
   </g>
   <g id="patch_71">
    <path d="M 152.132226 84819.909817 
L 164.098942 84819.909817 
L 164.098942 84819.909817 
L 152.132226 84819.909817 
z
" clip-path="url(#p71d66383e7)" style="fill: #ffa500; opacity: 0.5"/>
   </g>
   <g id="patch_72">
    <path d="M 164.098942 84819.909817 
L 177.894563 84819.909817 
L 177.894563 84819.909817 
L 164.098942 84819.909817 
z
" clip-path="url(#p71d66383e7)" style="fill: #ffa500; opacity: 0.5"/>
   </g>
   <g id="patch_73">
    <path d="M 177.894563 84819.909817 
L 193.798604 84819.909817 
L 193.798604 84819.909817 
L 177.894563 84819.909817 
z
" clip-path="url(#p71d66383e7)" style="fill: #ffa500; opacity: 0.5"/>
   </g>
   <g id="patch_74">
    <path d="M 193.798604 84819.909817 
L 212.133301 84819.909817 
L 212.133301 84819.909817 
L 193.798604 84819.909817 
z
" clip-path="url(#p71d66383e7)" style="fill: #ffa500; opacity: 0.5"/>
   </g>
   <g id="patch_75">
    <path d="M 212.133301 84819.909817 
L 233.270138 84819.909817 
L 233.270138 84819.909817 
L 212.133301 84819.909817 
z
" clip-path="url(#p71d66383e7)" style="fill: #ffa500; opacity: 0.5"/>
   </g>
   <g id="patch_76">
    <path d="M 233.270138 84819.909817 
L 257.637373 84819.909817 
L 257.637373 84819.909817 
L 233.270138 84819.909817 
z
" clip-path="url(#p71d66383e7)" style="fill: #ffa500; opacity: 0.5"/>
   </g>
   <g id="patch_77">
    <path d="M 257.637373 84819.909817 
L 285.728716 84819.909817 
L 285.728716 84819.909817 
L 257.637373 84819.909817 
z
" clip-path="url(#p71d66383e7)" style="fill: #ffa500; opacity: 0.5"/>
   </g>
   <g id="patch_78">
    <path d="M 285.728716 84819.909817 
L 318.113332 84819.909817 
L 318.113332 84819.909817 
L 285.728716 84819.909817 
z
" clip-path="url(#p71d66383e7)" style="fill: #ffa500; opacity: 0.5"/>
   </g>
   <g id="patch_79">
    <path d="M 318.113332 84819.909817 
L 355.447373 84819.909817 
L 355.447373 84819.909817 
L 318.113332 84819.909817 
z
" clip-path="url(#p71d66383e7)" style="fill: #ffa500; opacity: 0.5"/>
   </g>
   <g id="patch_80">
    <path d="M 355.447373 84819.909817 
L 398.487273 84819.909817 
L 398.487273 84819.909817 
L 355.447373 84819.909817 
z
" clip-path="url(#p71d66383e7)" style="fill: #ffa500; opacity: 0.5"/>
   </g>
   <g id="matplotlib.axis_1">
    <g id="xtick_1">
     <g id="line2d_1">
      <defs>
       <path id="mda96c1df2b" d="M 0 0 
L 0 3.5 
" style="stroke: #000000; stroke-width: 0.8"/>
      </defs>
      <g>
       <use xlink:href="#mda96c1df2b" x="73.832727" y="307.584" style="stroke: #000000; stroke-width: 0.8"/>
      </g>
     </g>
     <g id="text_1">
      <!-- 0 -->
      <g transform="translate(70.651477 322.182437) scale(0.1 -0.1)">
       <defs>
        <path id="DejaVuSans-30" d="M 2034 4250 
Q 1547 4250 1301 3770 
Q 1056 3291 1056 2328 
Q 1056 1369 1301 889 
Q 1547 409 2034 409 
Q 2525 409 2770 889 
Q 3016 1369 3016 2328 
Q 3016 3291 2770 3770 
Q 2525 4250 2034 4250 
z
M 2034 4750 
Q 2819 4750 3233 4129 
Q 3647 3509 3647 2328 
Q 3647 1150 3233 529 
Q 2819 -91 2034 -91 
Q 1250 -91 836 529 
Q 422 1150 422 2328 
Q 422 3509 836 4129 
Q 1250 4750 2034 4750 
z
" transform="scale(0.015625)"/>
       </defs>
       <use xlink:href="#DejaVuSans-30"/>
      </g>
     </g>
    </g>
    <g id="xtick_2">
     <g id="line2d_2">
      <g>
       <use xlink:href="#mda96c1df2b" x="128.258265" y="307.584" style="stroke: #000000; stroke-width: 0.8"/>
      </g>
     </g>
     <g id="text_2">
      <!-- 5 -->
      <g transform="translate(125.077015 322.182437) scale(0.1 -0.1)">
       <defs>
        <path id="DejaVuSans-35" d="M 691 4666 
L 3169 4666 
L 3169 4134 
L 1269 4134 
L 1269 2991 
Q 1406 3038 1543 3061 
Q 1681 3084 1819 3084 
Q 2600 3084 3056 2656 
Q 3513 2228 3513 1497 
Q 3513 744 3044 326 
Q 2575 -91 1722 -91 
Q 1428 -91 1123 -41 
Q 819 9 494 109 
L 494 744 
Q 775 591 1075 516 
Q 1375 441 1709 441 
Q 2250 441 2565 725 
Q 2881 1009 2881 1497 
Q 2881 1984 2565 2268 
Q 2250 2553 1709 2553 
Q 1456 2553 1204 2497 
Q 953 2441 691 2322 
L 691 4666 
z
" transform="scale(0.015625)"/>
       </defs>
       <use xlink:href="#DejaVuSans-35"/>
      </g>
     </g>
    </g>
    <g id="xtick_3">
     <g id="line2d_3">
      <g>
       <use xlink:href="#mda96c1df2b" x="182.683804" y="307.584" style="stroke: #000000; stroke-width: 0.8"/>
      </g>
     </g>
     <g id="text_3">
      <!-- 10 -->
      <g transform="translate(176.321304 322.182437) scale(0.1 -0.1)">
       <defs>
        <path id="DejaVuSans-31" d="M 794 531 
L 1825 531 
L 1825 4091 
L 703 3866 
L 703 4441 
L 1819 4666 
L 2450 4666 
L 2450 531 
L 3481 531 
L 3481 0 
L 794 0 
L 794 531 
z
" transform="scale(0.015625)"/>
       </defs>
       <use xlink:href="#DejaVuSans-31"/>
       <use xlink:href="#DejaVuSans-30" x="63.623047"/>
      </g>
     </g>
    </g>
    <g id="xtick_4">
     <g id="line2d_4">
      <g>
       <use xlink:href="#mda96c1df2b" x="237.109342" y="307.584" style="stroke: #000000; stroke-width: 0.8"/>
      </g>
     </g>
     <g id="text_4">
      <!-- 15 -->
      <g transform="translate(230.746842 322.182437) scale(0.1 -0.1)">
       <use xlink:href="#DejaVuSans-31"/>
       <use xlink:href="#DejaVuSans-35" x="63.623047"/>
      </g>
     </g>
    </g>
    <g id="xtick_5">
     <g id="line2d_5">
      <g>
       <use xlink:href="#mda96c1df2b" x="291.53488" y="307.584" style="stroke: #000000; stroke-width: 0.8"/>
      </g>
     </g>
     <g id="text_5">
      <!-- 20 -->
      <g transform="translate(285.17238 322.182437) scale(0.1 -0.1)">
       <defs>
        <path id="DejaVuSans-32" d="M 1228 531 
L 3431 531 
L 3431 0 
L 469 0 
L 469 531 
Q 828 903 1448 1529 
Q 2069 2156 2228 2338 
Q 2531 2678 2651 2914 
Q 2772 3150 2772 3378 
Q 2772 3750 2511 3984 
Q 2250 4219 1831 4219 
Q 1534 4219 1204 4116 
Q 875 4013 500 3803 
L 500 4441 
Q 881 4594 1212 4672 
Q 1544 4750 1819 4750 
Q 2544 4750 2975 4387 
Q 3406 4025 3406 3419 
Q 3406 3131 3298 2873 
Q 3191 2616 2906 2266 
Q 2828 2175 2409 1742 
Q 1991 1309 1228 531 
z
" transform="scale(0.015625)"/>
       </defs>
       <use xlink:href="#DejaVuSans-32"/>
       <use xlink:href="#DejaVuSans-30" x="63.623047"/>
      </g>
     </g>
    </g>
    <g id="xtick_6">
     <g id="line2d_6">
      <g>
       <use xlink:href="#mda96c1df2b" x="345.960418" y="307.584" style="stroke: #000000; stroke-width: 0.8"/>
      </g>
     </g>
     <g id="text_6">
      <!-- 25 -->
      <g transform="translate(339.597918 322.182437) scale(0.1 -0.1)">
       <use xlink:href="#DejaVuSans-32"/>
       <use xlink:href="#DejaVuSans-35" x="63.623047"/>
      </g>
     </g>
    </g>
    <g id="xtick_7">
     <g id="line2d_7">
      <g>
       <use xlink:href="#mda96c1df2b" x="400.385956" y="307.584" style="stroke: #000000; stroke-width: 0.8"/>
      </g>
     </g>
     <g id="text_7">
      <!-- 30 -->
      <g transform="translate(394.023456 322.182437) scale(0.1 -0.1)">
       <defs>
        <path id="DejaVuSans-33" d="M 2597 2516 
Q 3050 2419 3304 2112 
Q 3559 1806 3559 1356 
Q 3559 666 3084 287 
Q 2609 -91 1734 -91 
Q 1441 -91 1130 -33 
Q 819 25 488 141 
L 488 750 
Q 750 597 1062 519 
Q 1375 441 1716 441 
Q 2309 441 2620 675 
Q 2931 909 2931 1356 
Q 2931 1769 2642 2001 
Q 2353 2234 1838 2234 
L 1294 2234 
L 1294 2753 
L 1863 2753 
Q 2328 2753 2575 2939 
Q 2822 3125 2822 3475 
Q 2822 3834 2567 4026 
Q 2313 4219 1838 4219 
Q 1578 4219 1281 4162 
Q 984 4106 628 3988 
L 628 4550 
Q 988 4650 1302 4700 
Q 1616 4750 1894 4750 
Q 2613 4750 3031 4423 
Q 3450 4097 3450 3541 
Q 3450 3153 3228 2886 
Q 3006 2619 2597 2516 
z
" transform="scale(0.015625)"/>
       </defs>
       <use xlink:href="#DejaVuSans-33"/>
       <use xlink:href="#DejaVuSans-30" x="63.623047"/>
      </g>
     </g>
    </g>
   </g>
   <g id="matplotlib.axis_2">
    <g id="ytick_1">
     <g id="line2d_8">
      <defs>
       <path id="med28af8cbf" d="M 0 0 
L -3.5 0 
" style="stroke: #000000; stroke-width: 0.8"/>
      </defs>
      <g>
       <use xlink:href="#med28af8cbf" x="57.6" y="295.488" style="stroke: #000000; stroke-width: 0.8"/>
      </g>
     </g>
     <g id="text_8">
      <!-- $\mathdefault{10^{0}}$ -->
      <g transform="translate(33 299.287219) scale(0.1 -0.1)">
       <use xlink:href="#DejaVuSans-31" transform="translate(0 0.765625)"/>
       <use xlink:href="#DejaVuSans-30" transform="translate(63.623047 0.765625)"/>
       <use xlink:href="#DejaVuSans-30" transform="translate(128.203125 39.046875) scale(0.7)"/>
      </g>
     </g>
    </g>
    <g id="ytick_2">
     <g id="line2d_9">
      <g>
       <use xlink:href="#med28af8cbf" x="57.6" y="210.963578" style="stroke: #000000; stroke-width: 0.8"/>
      </g>
     </g>
     <g id="text_9">
      <!-- $\mathdefault{10^{1}}$ -->
      <g transform="translate(33 214.762797) scale(0.1 -0.1)">
       <use xlink:href="#DejaVuSans-31" transform="translate(0 0.684375)"/>
       <use xlink:href="#DejaVuSans-30" transform="translate(63.623047 0.684375)"/>
       <use xlink:href="#DejaVuSans-31" transform="translate(128.203125 38.965625) scale(0.7)"/>
      </g>
     </g>
    </g>
    <g id="ytick_3">
     <g id="line2d_10">
      <g>
       <use xlink:href="#med28af8cbf" x="57.6" y="126.439156" style="stroke: #000000; stroke-width: 0.8"/>
      </g>
     </g>
     <g id="text_10">
      <!-- $\mathdefault{10^{2}}$ -->
      <g transform="translate(33 130.238375) scale(0.1 -0.1)">
       <use xlink:href="#DejaVuSans-31" transform="translate(0 0.765625)"/>
       <use xlink:href="#DejaVuSans-30" transform="translate(63.623047 0.765625)"/>
       <use xlink:href="#DejaVuSans-32" transform="translate(128.203125 39.046875) scale(0.7)"/>
      </g>
     </g>
    </g>
    <g id="ytick_4">
     <g id="line2d_11">
      <g>
       <use xlink:href="#med28af8cbf" x="57.6" y="41.914735" style="stroke: #000000; stroke-width: 0.8"/>
      </g>
     </g>
     <g id="text_11">
      <!-- $\mathdefault{10^{3}}$ -->
      <g transform="translate(33 45.713953) scale(0.1 -0.1)">
       <use xlink:href="#DejaVuSans-31" transform="translate(0 0.765625)"/>
       <use xlink:href="#DejaVuSans-30" transform="translate(63.623047 0.765625)"/>
       <use xlink:href="#DejaVuSans-33" transform="translate(128.203125 39.046875) scale(0.7)"/>
      </g>
     </g>
    </g>
    <g id="ytick_5">
     <g id="line2d_12">
      <defs>
       <path id="m93d1b87f73" d="M 0 0 
L -2 0 
" style="stroke: #000000; stroke-width: 0.6"/>
      </defs>
      <g>
       <use xlink:href="#m93d1b87f73" x="57.6" y="303.679263" style="stroke: #000000; stroke-width: 0.6"/>
      </g>
     </g>
    </g>
    <g id="ytick_6">
     <g id="line2d_13">
      <g>
       <use xlink:href="#m93d1b87f73" x="57.6" y="299.355625" style="stroke: #000000; stroke-width: 0.6"/>
      </g>
     </g>
    </g>
    <g id="ytick_7">
     <g id="line2d_14">
      <g>
       <use xlink:href="#m93d1b87f73" x="57.6" y="270.043614" style="stroke: #000000; stroke-width: 0.6"/>
      </g>
     </g>
    </g>
    <g id="ytick_8">
     <g id="line2d_15">
      <g>
       <use xlink:href="#m93d1b87f73" x="57.6" y="255.159602" style="stroke: #000000; stroke-width: 0.6"/>
      </g>
     </g>
    </g>
    <g id="ytick_9">
     <g id="line2d_16">
      <g>
       <use xlink:href="#m93d1b87f73" x="57.6" y="244.599227" style="stroke: #000000; stroke-width: 0.6"/>
      </g>
     </g>
    </g>
    <g id="ytick_10">
     <g id="line2d_17">
      <g>
       <use xlink:href="#m93d1b87f73" x="57.6" y="236.407965" style="stroke: #000000; stroke-width: 0.6"/>
      </g>
     </g>
    </g>
    <g id="ytick_11">
     <g id="line2d_18">
      <g>
       <use xlink:href="#m93d1b87f73" x="57.6" y="229.715215" style="stroke: #000000; stroke-width: 0.6"/>
      </g>
     </g>
    </g>
    <g id="ytick_12">
     <g id="line2d_19">
      <g>
       <use xlink:href="#m93d1b87f73" x="57.6" y="224.056577" style="stroke: #000000; stroke-width: 0.6"/>
      </g>
     </g>
    </g>
    <g id="ytick_13">
     <g id="line2d_20">
      <g>
       <use xlink:href="#m93d1b87f73" x="57.6" y="219.154841" style="stroke: #000000; stroke-width: 0.6"/>
      </g>
     </g>
    </g>
    <g id="ytick_14">
     <g id="line2d_21">
      <g>
       <use xlink:href="#m93d1b87f73" x="57.6" y="214.831204" style="stroke: #000000; stroke-width: 0.6"/>
      </g>
     </g>
    </g>
    <g id="ytick_15">
     <g id="line2d_22">
      <g>
       <use xlink:href="#m93d1b87f73" x="57.6" y="185.519192" style="stroke: #000000; stroke-width: 0.6"/>
      </g>
     </g>
    </g>
    <g id="ytick_16">
     <g id="line2d_23">
      <g>
       <use xlink:href="#m93d1b87f73" x="57.6" y="170.63518" style="stroke: #000000; stroke-width: 0.6"/>
      </g>
     </g>
    </g>
    <g id="ytick_17">
     <g id="line2d_24">
      <g>
       <use xlink:href="#m93d1b87f73" x="57.6" y="160.074806" style="stroke: #000000; stroke-width: 0.6"/>
      </g>
     </g>
    </g>
    <g id="ytick_18">
     <g id="line2d_25">
      <g>
       <use xlink:href="#m93d1b87f73" x="57.6" y="151.883543" style="stroke: #000000; stroke-width: 0.6"/>
      </g>
     </g>
    </g>
    <g id="ytick_19">
     <g id="line2d_26">
      <g>
       <use xlink:href="#m93d1b87f73" x="57.6" y="145.190794" style="stroke: #000000; stroke-width: 0.6"/>
      </g>
     </g>
    </g>
    <g id="ytick_20">
     <g id="line2d_27">
      <g>
       <use xlink:href="#m93d1b87f73" x="57.6" y="139.532155" style="stroke: #000000; stroke-width: 0.6"/>
      </g>
     </g>
    </g>
    <g id="ytick_21">
     <g id="line2d_28">
      <g>
       <use xlink:href="#m93d1b87f73" x="57.6" y="134.630419" style="stroke: #000000; stroke-width: 0.6"/>
      </g>
     </g>
    </g>
    <g id="ytick_22">
     <g id="line2d_29">
      <g>
       <use xlink:href="#m93d1b87f73" x="57.6" y="130.306782" style="stroke: #000000; stroke-width: 0.6"/>
      </g>
     </g>
    </g>
    <g id="ytick_23">
     <g id="line2d_30">
      <g>
       <use xlink:href="#m93d1b87f73" x="57.6" y="100.99477" style="stroke: #000000; stroke-width: 0.6"/>
      </g>
     </g>
    </g>
    <g id="ytick_24">
     <g id="line2d_31">
      <g>
       <use xlink:href="#m93d1b87f73" x="57.6" y="86.110758" style="stroke: #000000; stroke-width: 0.6"/>
      </g>
     </g>
    </g>
    <g id="ytick_25">
     <g id="line2d_32">
      <g>
       <use xlink:href="#m93d1b87f73" x="57.6" y="75.550384" style="stroke: #000000; stroke-width: 0.6"/>
      </g>
     </g>
    </g>
    <g id="ytick_26">
     <g id="line2d_33">
      <g>
       <use xlink:href="#m93d1b87f73" x="57.6" y="67.359121" style="stroke: #000000; stroke-width: 0.6"/>
      </g>
     </g>
    </g>
    <g id="ytick_27">
     <g id="line2d_34">
      <g>
       <use xlink:href="#m93d1b87f73" x="57.6" y="60.666372" style="stroke: #000000; stroke-width: 0.6"/>
      </g>
     </g>
    </g>
    <g id="ytick_28">
     <g id="line2d_35">
      <g>
       <use xlink:href="#m93d1b87f73" x="57.6" y="55.007733" style="stroke: #000000; stroke-width: 0.6"/>
      </g>
     </g>
    </g>
    <g id="ytick_29">
     <g id="line2d_36">
      <g>
       <use xlink:href="#m93d1b87f73" x="57.6" y="50.105997" style="stroke: #000000; stroke-width: 0.6"/>
      </g>
     </g>
    </g>
    <g id="ytick_30">
     <g id="line2d_37">
      <g>
       <use xlink:href="#m93d1b87f73" x="57.6" y="45.78236" style="stroke: #000000; stroke-width: 0.6"/>
      </g>
     </g>
    </g>
   </g>
   <g id="patch_81">
    <path d="M 57.6 307.584 
L 57.6 41.472 
" style="fill: none; stroke: #000000; stroke-width: 0.8; stroke-linejoin: miter; stroke-linecap: square"/>
   </g>
   <g id="patch_82">
    <path d="M 414.72 307.584 
L 414.72 41.472 
" style="fill: none; stroke: #000000; stroke-width: 0.8; stroke-linejoin: miter; stroke-linecap: square"/>
   </g>
   <g id="patch_83">
    <path d="M 57.6 307.584 
L 414.72 307.584 
" style="fill: none; stroke: #000000; stroke-width: 0.8; stroke-linejoin: miter; stroke-linecap: square"/>
   </g>
   <g id="patch_84">
    <path d="M 57.6 41.472 
L 414.72 41.472 
" style="fill: none; stroke: #000000; stroke-width: 0.8; stroke-linejoin: miter; stroke-linecap: square"/>
   </g>
  </g>
 </g>
 <defs>
  <clipPath id="p71d66383e7">
   <rect x="57.6" y="41.472" width="357.12" height="266.112"/>
  </clipPath>
 </defs>
</svg>
